<svg version="1.0" xmlns="http://www.w3.org/2000/svg"
 width="64.000000pt" height="64.000000pt" viewBox="0 0 64.000000 64.000000"
 preserveAspectRatio="xMidYMid meet">

<g transform="translate(0.000000,64.000000) scale(0.100000,-0.100000)"
fill="#000000" stroke="none">
<path d="M425 600 c-34 -34 -45 -40 -82 -40 l-43 0 0 -43 c0 -24 3 -47 7 -51
4 -4 8 -21 9 -39 3 -55 21 -87 48 -87 31 0 35 7 43 70 3 28 9 53 14 55 17 11
80 -29 85 -55 10 -44 12 -46 13 -7 1 32 -3 40 -30 55 -86 47 -79 57 21 34 l75
-17 3 -88 3 -87 -35 0 c-28 0 -35 4 -39 23 l-4 22 -2 -22 c-1 -21 -5 -22 -113
-25 l-113 -3 -3 -32 c-3 -28 0 -33 18 -33 17 0 20 -4 15 -21 -6 -19 -3 -20 52
-17 50 3 58 6 55 22 -2 11 1 17 10 14 16 -6 24 -128 8 -128 -5 0 -10 8 -10 19
0 29 -25 43 -72 39 -38 -3 -43 -6 -46 -30 -3 -21 -9 -27 -30 -30 -21 -2 -28
-9 -30 -30 -5 -39 14 -68 44 -68 13 0 27 7 30 15 9 22 179 22 188 0 8 -22 45
-18 72 7 23 23 24 25 24 235 0 165 -3 215 -14 225 -7 8 -43 20 -80 27 -36 7
-66 16 -66 19 0 3 15 21 32 39 26 27 30 37 22 51 -18 29 -38 24 -79 -18z m59
-1 c-3 -5 -10 -7 -15 -3 -5 3 -7 10 -3 15 3 5 10 7 15 3 5 -3 7 -10 3 -15z
m-43 -42 c-11 -12 -24 -18 -27 -14 -10 10 27 48 38 41 6 -4 1 -16 -11 -27z
m-33 -49 c3 -27 2 -28 -42 -28 -45 0 -46 1 -46 31 0 29 1 30 43 27 38 -3 42
-6 45 -30z m-18 -83 c0 -31 -3 -35 -26 -35 -23 0 -24 1 -10 16 19 19 20 26 4
42 -9 9 -7 12 10 12 18 0 22 -6 22 -35z m-40 5 c0 -5 -4 -10 -10 -10 -5 0 -10
5 -10 10 0 6 5 10 10 10 6 0 10 -4 10 -10z m27 -66 c-3 -3 -12 -4 -19 -1 -8 3
-5 6 6 6 11 1 17 -2 13 -5z m71 -101 c-3 -15 -16 -19 -76 -21 -67 -3 -72 -1
-72 18 0 18 6 20 76 20 66 0 75 -2 72 -17z m142 -73 c0 -83 -1 -90 -20 -90
-11 0 -20 -4 -20 -10 0 -5 9 -10 21 -10 14 0 19 -5 17 -18 -3 -15 -20 -17
-161 -20 -152 -2 -157 -2 -157 18 0 19 6 20 120 20 73 0 120 4 120 10 0 6 -9
10 -20 10 -19 0 -20 7 -20 90 l0 90 60 0 60 0 0 -90z m-195 30 c4 -6 -7 -10
-24 -10 -17 0 -31 5 -31 10 0 6 11 10 24 10 14 0 28 -4 31 -10z m-7 -87 c-10
-2 -28 -2 -40 0 -13 2 -5 4 17 4 22 1 32 -1 23 -4z m5 -30 c-13 -2 -33 -2 -45
0 -13 2 -3 4 22 4 25 0 35 -2 23 -4z"/>
<path d="M500 245 c-15 -18 -10 -45 13 -59 34 -22 73 27 47 59 -16 19 -44 19
-60 0z m45 -26 c0 -7 -8 -15 -17 -17 -18 -3 -25 18 -11 32 10 10 28 1 28 -15z"/>
<path d="M111 555 c-13 -14 -29 -25 -36 -25 -24 0 -36 -28 -36 -83 -2 -98 48
-141 157 -135 53 3 59 5 62 26 3 20 8 22 35 17 32 -5 32 -5 10 11 -17 12 -21
22 -16 44 6 32 -13 100 -29 100 -6 0 -7 -7 -3 -17 23 -54 16 -113 -12 -113
-15 0 -15 1 1 13 33 24 1 79 -38 64 -21 -8 -21 -53 0 -65 15 -8 15 -10 0 -15
-10 -4 -16 -1 -16 7 0 7 -7 19 -15 26 -13 11 -13 14 0 27 19 18 19 37 1 52
-13 11 -13 15 1 31 9 10 22 16 29 13 30 -11 11 13 -22 30 -44 22 -44 22 -73
-8z m55 -6 c10 -17 -13 -36 -27 -22 -12 12 -4 33 11 33 5 0 12 -5 16 -11z
m-36 -54 c0 -5 -5 -3 -10 5 -5 8 -10 20 -10 25 0 6 5 3 10 -5 5 -8 10 -19 10
-25z m-32 3 c-3 -7 -11 -13 -18 -13 -7 0 -15 6 -17 13 -3 7 4 12 17 12 13 0
20 -5 18 -12z m17 -29 c-4 -5 1 -19 11 -30 13 -15 15 -22 6 -31 -30 -30 3 -82
39 -60 16 10 19 9 19 -3 0 -23 -62 -19 -94 6 -26 20 -47 73 -38 97 2 6 12 12
22 12 11 0 22 5 25 10 3 6 8 10 11 10 3 0 2 -5 -1 -11z m55 -3 c0 -8 -5 -18
-11 -22 -14 -8 -33 11 -25 25 10 16 36 13 36 -3z m70 -39 c0 -8 -3 -17 -7 -20
-9 -9 -34 13 -27 24 8 14 34 11 34 -4z m-70 -47 c0 -11 -7 -20 -15 -20 -8 0
-15 9 -15 20 0 11 7 20 15 20 8 0 15 -9 15 -20z m73 -35 c1 -5 -6 -11 -15 -13
-11 -2 -18 3 -18 13 0 17 30 18 33 0z"/>
<path d="M337 313 c18 -2 50 -2 70 0 21 2 7 4 -32 4 -38 0 -55 -2 -38 -4z"/>
</g>
</svg>
